<svg xmlns="http://www.w3.org/2000/svg" width="108.882" height="106.25" viewBox="0 0 108.882 106.25"><circle fill="#fff" cx="54.881" cy="54.743" r="51.51"/><circle fill-rule="evenodd" clip-rule="evenodd" fill="#2B2523" cx="54.881" cy="54.743" r="50.484"/><path fill-rule="evenodd" clip-rule="evenodd" fill="#3AB5E9" d="M47.355 68.617l-24.878 4.786 17.65-18.293-17.653-18.057 24.877 4.81 7.593-24.08c-20.695.005-37.47 16.78-37.47 37.476 0 20.66 16.723 37.416 37.372 37.474l-7.49-24.117zM55.022 17.786l7.507 24.078 24.876-4.838-17.655 18.07 17.653 18.3-24.88-4.783-7.593 24.122h.018c20.697 0 37.476-16.777 37.476-37.476 0-20.673-16.738-37.436-37.402-37.474z"/><g><path fill="#2B2523" d="M26.467 75.29c-3.86.236-5.77-3.555-5.82-5.916.094-.724.184-1.44.285-2.166l.206-1.56C34.153 55.492 49.192 43.864 64.124 34.6c2.16-1.34 4.43-2.49 5.73-4.18 1.737-2.27 2.625-6.812 6.608-5.702 1.668.465 2.4 1.615 2.52 3.576 3.942-1.456 7.634-3.388 8.795-8.577.297.043.597.083.9.123.755.282-.07 1.782.023 2.574-.06-.01-.122-.016-.182-.027-1.238 3.912-3.838 5.817-6.736 7.918-1.32.963-2.99 1.71-3.65 2.637-1.594 2.233-2.376 6.076-3.56 8.884C68.54 56.116 61.468 69.67 52.9 81.202c-3.25 4.38-7.173 8.918-11.58 12.132-.834.6-1.303 1.146-2.38 1.398-.78-.1-1.555-.203-2.338-.304.006-.06.01-.12.023-.188-6.404-3.03-.63-8.897 1.48-11.827 9.377-13 19.37-27.13 27.166-41.718-3.727 1.896-5.68 3.157-8.454 6.306 3.82 4.716-3.083 8.12-6.524 10.515-6.88 4.778-12.95 9.756-19.787 15.003-1.26.963-2.94 2.692-4.038 2.772z"/></g><path fill="#2B2523" d="M21.417 65.793l.682-.91-1.16.888s-1.328 2.01-.282 4.876c.27.742.56 1.764.93 1.38.62-.643 1.216-4.026 1.216-4.026l-1.387-2.207z"/><path fill-rule="evenodd" clip-rule="evenodd" fill="#FBFBFB" d="M66.18 46.706c.17-.07.487.05.714.054.853.494.397 2.12-.903 1.682-.697-.31-.623-1.614.19-1.736zm.482.303c.08.03.11.128.19.064.058-.14-.17-.182-.19-.065zm.312.36c.075-.056.062-.227-.093-.212-.033.122.03.168.094.213z"/><g fill-rule="evenodd" clip-rule="evenodd" fill="#FBFBFB"><path d="M41.72 89.926c-.397-.187-.78-.386-1.165-.596-.34-.183-.862-.355-1.078-.62-.212-.264-.267-.91-.35-1.29-.1-.453-.208-.9-.222-1.352 2.05.108 3.388 1.74 2.814 3.858zM39.153 88.747c.257.34.884.624 1.4.906.377.205.975.314 1.02.773-.508-.053-.928-.418-1.355-.658-.445-.252-.893-.467-1.304-.734-.23-.968-.49-1.913-.7-2.895.478-.265.54.805.637 1.243.126.573.233 1.026.303 1.364zM38.553 89.027c-.49.142-1.08.332-1.623.466-.347.086-.752.203-1.054.1.238-.36.764-.336 1.18-.444.416-.107.86-.21 1.244-.316-.08-.455-.22-.892-.345-1.327-.12-.413-.35-.832-.272-1.276.123.04.13-.06.197.026.305.862.56 1.76.673 2.77zM37.32 86.54c.26.65.485 1.33.606 2.084-.66.2-1.343.37-2.067.487-.002-1.31.616-2.21 1.46-2.57zM41.308 90.915c-.473-.045-.837-.41-1.237-.646-.41-.24-.853-.417-1.23-.683-.48.078-.95.244-1.41.373-.458.13-.93.29-1.397.256.02-.062-.03-.072-.024-.123.296-.34.86-.305 1.338-.425.47-.116.943-.33 1.37-.38.25-.027 1.166.603 1.423.75.206.12.425.294.628.404.217.115.595.14.54.473zM40.956 91.147c-.806 1.5-4.17 1.056-4.654-.535.708-.37 1.625-.42 2.34-.732.013-.007.062.008.077.01.74.15 1.494.956 2.236 1.257z"/></g><path fill-rule="evenodd" clip-rule="evenodd" fill="#FBFBFB" d="M73.576 31.983c.13-.075.407.04.596.04 1 .478.39 2.136-.75 1.743-.436-.15-.668-.624-.51-1.31.185-.204.366-.415.664-.473zm.007.242c-.03.14.37.14.428.096-.082-.097-.284-.143-.427-.095zm.672.368c.044-.127-.047-.15-.137-.177-.007.1.04.16.137.177z"/><g fill-rule="evenodd" clip-rule="evenodd" fill="#FBFBFB"><path d="M78.146 31.947c.195-.946.708-1.875.775-3.14 3.064-1.146 5.737-2.713 7.03-6.2.14-.378.3-.93.384-1.39.12-.66.22-1.442.9-1.364 1.175.135.556 2.217.14 3.183-1.604 3.73-4.67 6.127-7.632 8.042-.51.328-1.034.685-1.596.87zm7.762-8.425c.176-.295.416-.505.45-.98-.037-.006-.077-.013-.117-.018-.038.427-.287.58-.332.998zm-1.354 2.065c.11.02.127-.083.145-.182-.122-.034-.14.068-.146.182zm-2.408 2.163c.856-.45 1.604-1.042 2.17-1.875.117.012.27-.197.115-.265-.63.884-1.507 1.446-2.284 2.14zm-3.197 2.66c-.09.3-.16.622-.276.885.55-.22 1.018-.547 1.444-.93-.328.096-.808.133-1.17.046zM69.09 31.99c.032 0 .034.02.032.045-1.016 2.245-2.233 4.517-3.328 6.688-.154.31-.305.707-.484.938-.24.315-.854.55-1.182.766-2.385 1.557-4.527 3.154-6.788 4.99-.347.28-.938.65-1.013.987-.165.763.783 1.633.732 2.34-.432-.282-.726-.752-1.085-1.186-.688-.826-1.342-1.586-2.07-2.516-.312-.396-.703-1.07-1.125-1.19-.456-.128-.913.07-1.232.238-.642.34-1.29.917-1.952 1.424-1.892 1.45-3.87 2.93-5.744 4.366-7.473 5.726-15.013 11.365-22.486 17.09-.105.08-.28.37-.464.18.24-1 .902-1.29 1.693-1.9 7.264-5.61 14.665-11.23 21.957-16.72 3.95-2.972 7.832-5.91 11.95-8.59 3.07-2 6.18-4.03 9.32-5.976 1.063-.66 2.15-1.293 3.183-1.943.045.012.072 0 .084-.03zm-6.83 4.984c1.605-1.003 3.273-1.94 4.624-3.153-.833.43-1.596.99-2.4 1.486-2.005 1.237-4.02 2.504-5.98 3.734-.378.237-.854.482-1.08.898 1.628-.914 3.236-1.96 4.837-2.964zm1.81 2.683c-.65.332-1.362 1.008-2.045 1.532-.79.604-1.56 1.233-2.19 1.712.077.1.206-.058.253-.086 1.57-.987 3.076-2.215 4.554-3.243-.22-.052-.403-.002-.572.084zm-11.693 3.62c1.213-.08 1.433 1.087 2.098 1.398-.22-.272-.304-.526-.566-.875-.144-.19-.675-.548-.655-.807.02-.263.525-.493.73-.666.31-.263.48-.493.767-.66 0-.047 0-.093-.068-.087-.76.576-1.61 1.036-2.307 1.696zm3.636 3.685c-.063-.37-.105-.924.28-1.205-.68 0-.868.93-.28 1.205zM75.995 24.894c1.984.197 2.773 2.284 2.422 4.406-.17 1.012-.535 1.95-.897 2.845-.73 1.802-1.445 3.657-2.102 5.29-5.648 14.03-12.125 26.91-19.846 38.304-3.85 5.68-7.926 10.848-12.67 15.545-1.06 1.05-2.495 2.24-4.357 2.347-2.154.122-3.988-1.146-4.29-2.69-.355-1.822.97-3.866 1.72-4.818 2.84-3.603 5.59-7.536 8.27-11.362 3.6-5.135 7.147-10.444 10.54-15.785 5.197-8.183 9.982-16.306 14.43-25.525.68-1.404 1.51-3.007 2.166-4.56.663-1.563 1.61-3.016 2.85-3.67.468-.248.938-.41 1.765-.328zm-4.065 4.39c-1.71 4.248-4.108 8.135-5.707 12.26.25-.244.43-.57.597-.88 1.257-2.354 2.393-4.715 3.577-7.058 1.173-2.322 2.266-4.966 3.68-6.923.198-.275.582-.524.546-.81-.025-.002-.05-.006-.077-.01-1.175.706-2.02 1.94-2.616 3.42zm5.452-2.163c.18 3.412-1.762 6.112-2.412 8.853.457-.947.992-2.12 1.486-3.37.48-1.206 1.036-2.543 1.254-3.718.14-.757-.01-1.37-.194-1.867l-.117-.015-.018.118zm-1.893 2.513c.16-.188.28-.433.373-.71-.052-.008-.026-.073-.068-.09-.132.23-.236.494-.306.8zm-3.076 2.957c-.432 1.994 2.83 2.26 2.736.203-.024-.537-.525-1.253-1.354-1.26-.707-.007-1.233.367-1.382 1.057zm-.374 1.313c.17.023.247-.52.118-.585-.086.167-.115.433-.118.585zm2.705 2.56c.154.044.242-.428.1-.466-.045.14-.09.28-.1.467zm-.196.575c.017-.072.135-.247.04-.314-.047.034-.118.27-.04.314zm-5.363 3.897c.083-.063.277-.416.107-.507-.054.1-.278.414-.107.507zm2.126 3.605c-.095.13-.308.416-.157.58.41-.76.788-1.557 1.087-2.46-.05-.008-.048-.056-.113-.054-.35.544-.608 1.206-.817 1.934zm-6.277 3.255c.198.545.44 1.016 1.09 1.146 1.864.37 2.335-2.77.197-2.696-.77.074-1.252.522-1.287 1.55zm-1.43-1.31c-.286.333-.472.796-.722 1.226-1.384 2.376-2.852 4.832-4.258 7.047-.066.106-.324.372-.15.54.366-.172.486-.627.687-.95 1.144-1.85 2.27-3.67 3.34-5.565.43-.76.914-1.498 1.222-2.28l-.118-.018zm5.366 3.032c-3.77 7.192-7.14 15-11.48 21.39-.268.396-.804.81-.664 1.394 4.333-6.525 8.354-13.61 11.785-21.268.22-.495.557-.967.562-1.528-.092-.03-.095.06-.203.013zm-6.55 2.578c.177-.296.365-.572.52-.893-.05-.01-.047-.058-.112-.055-.124.282-.53.65-.407.948zm2.527.895c.103-.25.292-.388.368-.672l-.157-.02c.005.29-.405.454-.21.692zm-3.26.41c.047-.082.187-.278.093-.388-.072.068-.254.3-.092.388zm.15 6.43c.13.03.248-.185.112-.228-.074.03-.117.096-.11.227zm-4.904.75c.116.076.218-.2.065-.19-.038.04-.065.1-.064.19zM37.84 84.73c.288-.09.518-.25.874-.246 2.852-3.416 5.372-7.207 7.955-11.083 2.17-3.256 4.5-6.696 6.656-10.054.448-.697.902-1.236.994-2.07l-.118-.016c-5.143 8.228-10.844 15.73-16.36 23.468zM60.2 62.854c.19-.12.294-.354.397-.588-.05-.008-.048-.057-.112-.055-.066.234-.346.4-.286.644zM55.82 66.28c.27-.197.434-.54.598-.882l-.12-.016c-.164.29-.403.49-.478.9zm-.655 2.517c.043-.07.172-.186.03-.236.004.07-.135.183-.03.237zm-.21.372c.066-.02.214-.328.048-.355-.017.122-.21.275-.047.354zm-3.55 1.412c.163-.232.38-.396.492-.695-.005-.032-.028-.05-.075-.05-.168.18-.426.488-.418.745zm2.544 5.905c.572-.473 1.012-1.113 1.333-1.908-.055-.017-.057-.073-.105-.095-.517.498-.996 1.286-1.227 2.002zm-3.058 4.04c-1.104 1.354-2.215 2.71-3.294 4.01-1.498 1.806-2.85 3.67-4.63 5.034-.06.587-.386.82-.566 1.247.56-.306.944-.836 1.374-1.3 3.076-3.322 6.007-6.837 8.73-10.58-.003-.045-.036-.067-.07-.09-.685.34-1.03 1.048-1.544 1.68zm-5.52 1.472c.252-.18.43-.45.58-.765-.004-.033-.026-.05-.073-.05-.123.306-.538.462-.51.814zm-2.79.792c.274-.168.483-.417.622-.758l-.117-.018c-.13.31-.423.404-.504.776zm2.356 2.473c.185-.144.327-.343.403-.627-.003-.03-.025-.05-.072-.05-.108.23-.307.34-.33.677zm-9.18 2.19c-1.068 2.16.22 4.47 2.145 4.97 2.246.584 3.977-.795 4.357-2.666.45-2.216-1.15-4.062-3.34-4.128-1.406-.042-2.65.79-3.163 1.822zm-1.13 3.094c.13.72.524 1.45 1.03 1.898.32.283.92.766 1.228.403-.935-.662-1.836-1.35-2.2-2.454-.018.054-.064.07-.06.153zM56.722 51.902c-.417-.74-.74-1.555-1.403-2.108.286.853.748 1.572 1.31 2.215-1.028.89-2.13 1.682-3.215 2.5-3.216 2.41-6.428 4.923-9.735 7.28-.452-.69-.764-1.488-1.368-2.062.005.403.286.788.488 1.146.214.38.452.736.747 1.02-1.83 1.54-3.916 2.964-6.012 4.57-.732.562-1.49 1.132-2.268 1.703-.983.724-1.93 1.512-2.986 2.288-.218.16-.657.53-.785.497-.203-.05-.49-.886-.583-1.038-.24-.397-.475-.71-.68-.932.186.696.674 1.465 1.084 2.105-.853.765-1.786 1.424-2.72 2.085-.31.207-.502.574-.96.594-.188.475-.638.61-.995.87-3.417-.62-5.71-2.167-5.8-5.495-.008-.292-.072-.775.018-1.037.135-.396 1.375-1.125 1.927-1.55 4.624-3.543 9.088-6.928 13.72-10.477 4.7-3.602 9.052-6.866 13.763-10.477.572-.44 1.54-1.456 2.26-1.344.43.067.936.96 1.262 1.37.794.994 1.586 1.89 2.348 2.833.365.45.917.973 1.132 1.43.163.346.243.622-.07.832.33.375-.062 1.098-.478 1.18zm.438-1.185c-.336-.79-.963-1.36-1.498-2-.047 0-.11-.02-.123.024.51.682.897 1.458 1.62 1.977zm-3.283 3.01c-.28-.82-.726-1.518-1.28-2.13.28.8.73 1.656 1.28 2.13zM50.09 56.63c-.253-.88-.698-1.61-1.265-2.25.303.842.704 1.608 1.264 2.25zm-2.558 1.465c-.067-.574-.577-1.112-.82-1.67-.04-.005-.08-.01-.118-.017.216.637.55 1.184.938 1.687zm-4.233-1c.296.292.41.907.74 1.06-.17-.37-.332-1.108-.74-1.06zm-2.986 6.212c-.133-.688-.455-1.23-.988-1.61.17.516.628 1.12.988 1.61zm-1.6 1.512c-.133-.456-.323-.863-.692-1.135.144.422.403.94.69 1.134zm-1.84 1.477c-.22-.646-.567-1.19-1.02-1.658.22.644.49 1.25 1.02 1.657zm-2.91.214c.343.52.675 1.228 1.07 1.586-.214-.614-.48-1.376-1.07-1.585zm-2.05.972c.22.41.408.844.724 1.178-.135-.452-.326-1.046-.725-1.178zm-2.375 4.613c-.283-.856-.723-1.593-1.264-2.252.285.856.662 1.64 1.263 2.252zm-2.652-1.753c-.057-.275-.208-.478-.438-.62-.01.325.196.486.438.62zm1.493 2.64c-.103-.393-.275-.73-.638-.924.11.386.36.666.64.924zm-.846.65c-.08-.52-.444-1.12-.842-1.514.183.58.465 1.083.842 1.513zm-1.957-.34c-.18-.534-.48-.975-.952-1.287.114.584.63.863.952 1.288z"/></g><circle fill-rule="evenodd" clip-rule="evenodd" fill="#3AB5E9" cx="17.896" cy="78.799" r="2.82"/><path fill="#2B2523" d="M17.858 81.59l.56-1.78 1.83.35-1.297-1.345 1.298-1.328-1.828.355-.555-1.777-.56 1.777-1.83-.353 1.298 1.327-1.297 1.344 1.83-.35z"/><circle fill-rule="evenodd" clip-rule="evenodd" fill="#3AB5E9" cx="92.302" cy="78.618" r="2.82"/><path fill="#2B2523" d="M92.264 81.41l.56-1.785 1.83.354-1.298-1.347 1.297-1.328-1.827.356-.555-1.78-.56 1.78-1.827-.353 1.295 1.328-1.295 1.344 1.828-.353z"/><path fill="#fff" d="M7.135 48.246c.358.17.684.63 1.032 1.016.29.318.78.593.7.963-.622-.022-1.186-.405-1.777-.622.034-.45-.402-.974.045-1.357z"/><circle fill-rule="evenodd" clip-rule="evenodd" fill="none" cx="55.151" cy="55.102" r="40.794"/><text transform="matrix(-.345 -.939 .939 -.345 18.168 72.799)"><tspan x="0" y="0" fill="#fff" font-family="'Copperplate-Bold'" font-size="13.939">J</tspan><tspan x="6.157" y="-.195" fill="#fff" font-family="'Copperplate-Bold'" font-size="12.731" rotate="9.669">O</tspan><tspan x="13.968" y="1.052" fill="#fff" font-family="'Copperplate-Bold'" font-size="12.731" rotate="20.125">E</tspan><tspan x="21.687" y="3.848" fill="#fff" font-family="'Copperplate-Bold'" font-size="12.731" rotate="31.611">S</tspan><tspan x="30.394" y="9.375" fill="#fff" font-family="'Copperplate-Bold'" font-size="13.939" rotate="47.225">B</tspan><tspan x="36.235" y="15.419" fill="#fff" font-family="'Copperplate-Bold'" font-size="15.426" rotate="59.085">a</tspan><tspan x="40.967" y="23.187" fill="#fff" font-family="'Copperplate-Bold'" font-size="12.731" rotate="70.966">R</tspan><tspan x="43.666" y="30.628" fill="#fff" font-family="'Copperplate-Bold'" font-size="12.731" rotate="82.032">B</tspan><tspan x="44.835" y="38.217" fill="#fff" font-family="'Copperplate-Bold'" font-size="12.731" rotate="92.353">E</tspan><tspan x="44.687" y="45.437" fill="#fff" font-family="'Copperplate-Bold'" font-size="12.731" rotate="102.965">R</tspan><tspan x="42.912" y="53.426" fill="#fff" font-family="'Copperplate-Bold'" font-size="12.731" rotate="113.795">S</tspan><tspan x="40.298" y="59.882" fill="#fff" font-family="'Copperplate-Bold'" font-size="12.731" rotate="124.555">H</tspan><tspan x="35.794" y="66.657" fill="#fff" font-family="'Copperplate-Bold'" font-size="12.731" rotate="135.49">O</tspan><tspan x="30.594" y="71.942" fill="#fff" font-family="'Copperplate-Bold'" font-size="12.731" rotate="145.362">P</tspan><tspan x="19.642" y="78.775" fill="#fff" font-family="'Copperplate-Bold'" font-size="14.032" rotate="164.492">C</tspan><tspan x="11.222" y="81.169" fill="#fff" font-family="'Copperplate-Bold'" font-size="12.731" rotate="175.627">h</tspan><tspan x="3.912" y="81.666" fill="#fff" font-family="'Copperplate-Bold'" font-size="12.731" rotate="-177.018">i</tspan><tspan x=".569" y="81.659" fill="#fff" font-family="'Copperplate-Bold'" font-size="12.731" rotate="-169.833">c</tspan><tspan x="-6.605" y="80.451" fill="#fff" font-family="'Copperplate-Bold'" font-size="12.731" rotate="-159.285">a</tspan><tspan x="-13.413" y="77.958" fill="#fff" font-family="'Copperplate-Bold'" font-size="12.731" rotate="-149.639">g</tspan><tspan x="-19.523" y="74.455" fill="#fff" font-family="'Copperplate-Bold'" font-size="12.731" rotate="-139.708">o</tspan></text><path fill="none" d="M9.73 57.88c0 24.767 20.076 44.845 44.844 44.845 24.766 0 44.842-20.078 44.842-44.844"/><text transform="matrix(.935 .355 -.355 .935 35.919 98.78)"><tspan x="0" y="0" fill="#fff" font-family="'Copperplate'" font-size="8.732">E</tspan><tspan x="5.901" y="-.035" fill="#fff" font-family="'Copperplate'" font-size="8.732" rotate="-6.969">s</tspan><tspan x="11.112" y="-.71" fill="#fff" font-family="'Copperplate'" font-size="8.732" rotate="-13.394">t</tspan><tspan x="14.74" y="-1.58" fill="#fff" font-family="'Copperplate'" font-size="8.732" rotate="-17.056">.</tspan><tspan x="17.619" y="-2.413" fill="#fff" font-family="'Copperplate'" font-size="8.732" rotate="-22.494">1</tspan><tspan x="21.793" y="-4.096" fill="#fff" font-family="'Copperplate'" font-size="8.732" rotate="-28.198">9</tspan><tspan x="26.87" y="-6.85" fill="#fff" font-family="'Copperplate'" font-size="8.732" rotate="-35.606">6</tspan><tspan x="31.425" y="-10.132" fill="#fff" font-family="'Copperplate'" font-size="8.732" rotate="-42.822">8</tspan></text></svg>