<svg xmlns="http://www.w3.org/2000/svg" width="500" height="499.992" viewBox="0 0 500 499.992"><circle fill="#fff" cx="250" cy="249.996" r="250"/><path fill-rule="evenodd" clip-rule="evenodd" d="M495.013 249.996c0 135.323-109.697 245.015-245.015 245.015-135.32 0-245.016-109.69-245.016-245.013C4.982 114.68 114.68 4.98 249.998 4.98c135.317 0 245.015 109.7 245.015 245.016z"/><path fill-rule="evenodd" clip-rule="evenodd" fill="#3AB5E9" d="M213.474 317.335L92.728 340.568l85.67-88.785-85.683-87.642 120.74 23.35L250.3 70.62c-100.44.017-181.856 81.444-181.856 181.885 0 100.28 81.16 181.6 181.378 181.882l-36.348-117.056zm37.21-246.705l36.437 116.857 120.736-23.48-85.688 87.706 85.676 88.822L287.1 317.317l-36.856 117.075h.087c100.45 0 181.885-81.43 181.885-181.887 0-100.335-81.243-181.688-181.53-181.876z"/><path d="M345.564 187.29c-29.278 69.364-63.606 135.155-105.185 191.117-15.78 21.256-34.807 43.275-56.2 58.89-4.053 2.902-6.32 5.56-11.57 6.797-3.78-.51-7.537-.988-11.335-1.49.028-.282.043-.6.11-.912-31.08-14.702-3.05-43.18 7.194-57.394 45.497-63.103 93.997-131.668 131.85-202.48-18.106 9.21-27.57 15.323-41.03 30.607 18.507 22.89-14.978 39.424-31.68 51.027-33.395 23.19-62.847 47.35-96.034 72.812-6.104 4.67-14.27 13.066-19.61 13.446-18.72 1.147-28-17.242-28.238-28.7.456-3.52.89-7.008 1.382-10.523l.998-7.545c63.17-49.31 136.16-105.756 208.63-150.72 10.49-6.502 21.498-12.09 27.802-20.288 8.448-11.013 12.755-33.065 32.07-27.668 8.093 2.255 11.664 7.84 12.25 17.358 19.12-7.07 37.034-16.448 42.673-41.63 1.442.2 2.922.397 4.366.588 3.692 1.38-.335 8.657.12 12.494-.29-.04-.578-.077-.88-.135-5.998 19-18.63 28.238-32.698 38.444-6.406 4.666-14.51 8.287-17.715 12.788-7.74 10.85-11.532 29.487-17.274 43.12z"/><path d="M87.585 303.633l3.31-4.416-5.628 4.303s-6.438 9.755-1.362 23.66c1.302 3.607 2.71 8.56 4.518 6.693 3.008-3.11 5.892-19.53 5.892-19.53l-6.73-10.71z"/><path fill-rule="evenodd" clip-rule="evenodd" fill="#FBFBFB" d="M304.842 210.988c.826-.342 2.363.243 3.46.263 4.14 2.4 1.935 10.29-4.382 8.168-3.388-1.5-3.025-7.835.922-8.43zm2.335 1.47c.38.16.538.63.928.32.277-.676-.837-.885-.928-.32zm1.514 1.762c.37-.28.303-1.103-.443-1.034-.17.59.136.813.445 1.034zM186.12 420.76c-1.92-.904-3.777-1.877-5.648-2.89-1.646-.888-4.188-1.73-5.234-3.024-1.03-1.267-1.297-4.41-1.7-6.242-.482-2.206-1.01-4.377-1.076-6.565 9.95.51 16.445 8.44 13.66 18.72zm-12.457-5.733c1.25 1.662 4.29 3.03 6.8 4.405 1.827.995 4.727 1.526 4.942 3.754-2.463-.255-4.5-2.03-6.57-3.195-2.16-1.22-4.332-2.26-6.33-3.56-1.12-4.7-2.38-9.284-3.397-14.05 2.318-1.285 2.626 3.905 3.09 6.037.606 2.777 1.126 4.983 1.465 6.61zm-2.913 1.37c-2.382.69-5.244 1.61-7.876 2.26-1.682.42-3.652.983-5.117.486 1.156-1.753 3.707-1.64 5.73-2.16 2.013-.52 4.176-1.005 6.034-1.532-.392-2.202-1.07-4.323-1.672-6.437-.576-2.008-1.7-4.037-1.32-6.197.594.19.636-.29.953.124 1.49 4.182 2.73 8.548 3.27 13.456zm-5.98-12.067c1.265 3.154 2.35 6.445 2.94 10.11-3.208.96-6.518 1.79-10.032 2.362-.003-6.367 2.99-10.73 7.093-12.473zm19.354 21.226c-2.295-.216-4.062-1.99-6.002-3.133-1.988-1.177-4.145-2.024-5.977-3.313-2.33.373-4.617 1.188-6.848 1.81-2.216.62-4.51 1.413-6.77 1.244.093-.3-.143-.35-.12-.6 1.442-1.646 4.182-1.48 6.497-2.06 2.28-.564 4.577-1.6 6.655-1.842 1.21-.137 5.653 2.917 6.902 3.64.995.578 2.056 1.427 3.045 1.958 1.047.56 2.882.672 2.616 2.296zm-1.708 1.13c-3.91 7.277-20.237 5.124-22.59-2.6 3.44-1.8 7.89-2.036 11.355-3.553.066-.033.31.035.38.046 3.603.73 7.256 4.635 10.857 6.106zM340.736 139.535c.632-.364 1.973.195 2.884.187 4.852 2.32 1.898 10.37-3.643 8.462-2.107-.725-3.234-3.022-2.465-6.35.9-.992 1.777-2.016 3.224-2.3zm.035 1.173c-.14.687 1.8.676 2.08.467-.406-.475-1.39-.696-2.08-.467zm3.263 1.79c.216-.62-.225-.738-.66-.862-.046.49.18.777.66.862z"/><path d="M362.913 139.36c.95-4.595 3.438-9.102 3.767-15.245 14.87-5.56 27.84-13.163 34.112-30.09.685-1.838 1.453-4.518 1.86-6.752.594-3.197 1.063-6.992 4.378-6.612 5.698.658 2.696 10.76.678 15.45-7.786 18.098-22.663 29.737-37.043 39.027-2.47 1.6-5.02 3.327-7.752 4.224zm37.676-40.888c.852-1.433 2.017-2.45 2.186-4.76-.192-.026-.384-.058-.577-.08-.186 2.07-1.396 2.802-1.61 4.84zm-6.578 10.017c.536.094.62-.4.706-.88-.59-.165-.668.325-.707.88zM382.33 118.99c4.15-2.186 7.787-5.06 10.53-9.104.57.056 1.31-.96.56-1.284-3.066 4.29-7.324 7.017-11.09 10.387zm-15.515 12.915c-.437 1.45-.78 3.01-1.348 4.292 2.682-1.064 4.943-2.66 7.013-4.513-1.595.46-3.913.638-5.665.22zm-47.855 7.663c.165-.01.165.1.165.22-4.93 10.893-10.846 21.922-16.155 32.457-.752 1.507-1.487 3.432-2.357 4.552-1.166 1.525-4.14 2.667-5.734 3.71-11.576 7.56-21.975 15.31-32.945 24.22-1.685 1.365-4.552 3.15-4.913 4.79-.803 3.702 3.795 7.93 3.558 11.355-2.092-1.366-3.518-3.65-5.27-5.75-3.334-4.012-6.508-7.705-10.043-12.217-1.515-1.93-3.412-5.2-5.46-5.777-2.213-.624-4.433.333-5.978 1.15-3.118 1.66-6.26 4.455-9.474 6.915-9.183 7.04-18.778 14.222-27.876 21.193-36.267 27.792-72.865 55.148-109.136 82.945-.512.396-1.357 1.804-2.25.87 1.165-4.846 4.38-6.254 8.215-9.216 35.25-27.244 71.175-54.513 106.562-81.15 19.17-14.428 38.01-28.684 58.004-41.697 14.895-9.703 29.99-19.55 45.235-29 5.158-3.2 10.43-6.278 15.438-9.43.22.06.348-.003.41-.143zm-33.14 24.186c7.78-4.866 15.878-9.415 22.437-15.298-4.043 2.087-7.746 4.804-11.648 7.207-9.74 6.008-19.52 12.152-29.03 18.125-1.833 1.153-4.14 2.34-5.237 4.36 7.904-4.44 15.706-9.517 23.476-14.394zm8.775 13.025c-3.16 1.61-6.61 4.893-9.923 7.435-3.834 2.935-7.572 5.99-10.624 8.315.373.48.994-.283 1.22-.422 7.623-4.787 14.93-10.746 22.1-15.742-1.054-.246-1.952-.004-2.773.415zm-56.748 17.565c5.89-.388 6.952 5.28 10.18 6.792-1.07-1.323-1.475-2.557-2.744-4.25-.695-.928-3.274-2.664-3.175-3.92.1-1.273 2.55-2.39 3.537-3.227 1.512-1.276 2.34-2.39 3.73-3.2.005-.233 0-.46-.33-.43-3.694 2.797-7.816 5.034-11.198 8.234zm17.653 17.888c-.316-1.792-.52-4.484 1.357-5.846-3.308 0-4.215 4.512-1.357 5.846zm96.975-107.105c9.624.956 13.464 11.083 11.75 21.385-.82 4.91-2.59 9.47-4.354 13.806-3.537 8.75-7.01 17.75-10.2 25.67-27.41 68.096-58.845 130.61-96.32 185.91-18.684 27.57-38.464 52.654-61.494 75.453-5.14 5.09-12.104 10.88-21.14 11.388-10.455.596-19.358-5.56-20.822-13.055-1.725-8.85 4.703-18.768 8.346-23.387 13.782-17.484 27.126-36.58 40.146-55.145 17.467-24.924 34.685-50.69 51.15-76.622 25.22-39.706 48.447-79.134 70.042-123.88 3.285-6.81 7.328-14.59 10.506-22.13 3.212-7.59 7.814-14.64 13.825-17.805 2.27-1.198 4.555-1.987 8.564-1.588zm-19.728 21.303c-8.296 20.618-19.944 39.487-27.702 59.507 1.222-1.185 2.092-2.774 2.9-4.278 6.102-11.415 11.61-22.876 17.36-34.25 5.693-11.27 10.997-24.1 17.856-33.6.968-1.33 2.83-2.54 2.653-3.923-.125-.017-.242-.035-.373-.05-5.7 3.42-9.804 9.417-12.693 16.595zm26.463-10.492c.87 16.56-8.556 29.657-11.712 42.966 2.217-4.6 4.82-10.294 7.215-16.353 2.33-5.857 5.033-12.35 6.086-18.05.676-3.673-.043-6.653-.94-9.062-.19-.023-.385-.05-.565-.074-.036.19-.058.38-.086.574zm-9.19 12.193c.78-.91 1.358-2.103 1.812-3.45-.25-.04-.126-.357-.33-.437-.64 1.114-1.142 2.398-1.48 3.888zm-14.927 14.35c-2.093 9.677 13.74 10.97 13.283.983-.12-2.604-2.55-6.084-6.576-6.115-3.427-.028-5.984 1.784-6.707 5.132zm-1.816 6.375c.832.113 1.205-2.522.57-2.84-.417.81-.552 2.102-.57 2.84zm13.13 12.43c.746.205 1.17-2.082.493-2.272-.22.678-.447 1.357-.492 2.27zm-.95 2.786c.086-.35.663-1.2.2-1.53-.227.17-.572 1.316-.2 1.53zm-26.026 18.91c.408-.303 1.347-2.014.527-2.46-.266.49-1.352 2.013-.525 2.46zm10.326 17.5c-.463.628-1.498 2.02-.768 2.816 1.99-3.685 3.827-7.558 5.28-11.938-.25-.048-.238-.277-.555-.265-1.695 2.64-2.95 5.853-3.957 9.387zm-30.472 15.8c.968 2.643 2.132 4.93 5.286 5.557 9.052 1.796 11.33-13.443.96-13.09-3.73.362-6.072 2.536-6.247 7.532zm-6.93-6.36c-1.398 1.62-2.298 3.865-3.513 5.95-6.71 11.523-13.836 23.443-20.66 34.2-.328.516-1.573 1.804-.73 2.62 1.774-.834 2.356-3.043 3.33-4.61 5.553-8.985 11.016-17.814 16.205-27.014 2.087-3.69 4.445-7.27 5.938-11.07-.193-.028-.385-.056-.57-.078zm26.037 14.716c-18.297 34.906-34.644 72.802-55.72 103.81-1.3 1.924-3.9 3.937-3.222 6.77 21.028-31.677 40.542-66.06 57.195-103.228 1.08-2.403 2.703-4.693 2.73-7.42-.45-.136-.462.294-.982.068zm-31.777 12.513c.848-1.437 1.764-2.78 2.51-4.33-.243-.047-.226-.284-.544-.27-.604 1.365-2.566 3.15-1.967 4.6zm12.246 4.34c.51-1.213 1.425-1.88 1.797-3.263-.26-.032-.514-.062-.768-.096.022 1.406-1.963 2.208-1.03 3.36zm-15.81 1.992c.227-.398.904-1.35.44-1.885-.34.33-1.225 1.463-.44 1.886zm.735 31.204c.622.152 1.2-.895.53-1.104-.348.142-.564.463-.53 1.104zm-23.81 3.64c.565.373 1.057-.972.322-.926-.192.202-.328.485-.323.927zm-92.677 117.207c1.394-.43 2.51-1.21 4.237-1.192 13.84-16.58 26.073-34.98 38.61-53.79 10.53-15.8 21.837-32.496 32.31-48.793 2.173-3.387 4.378-5.998 4.825-10.048-.19-.034-.38-.05-.572-.073-24.964 39.924-52.635 76.328-79.41 113.897zm108.515-106.167c.927-.578 1.43-1.714 1.934-2.852-.25-.043-.238-.275-.548-.265-.32 1.127-1.68 1.94-1.387 3.117zM254.563 306c1.323-.96 2.108-2.635 2.9-4.285-.192-.022-.38-.05-.572-.074-.8 1.414-1.96 2.37-2.327 4.36zm-3.173 12.213c.207-.34.833-.903.153-1.153.005.35-.662.89-.154 1.153zm-1.015 1.81c.32-.102 1.035-1.588.227-1.72-.083.59-1.02 1.335-.227 1.72zm-17.235 6.855c.792-1.13 1.846-1.923 2.39-3.376-.023-.16-.134-.245-.36-.245-.82.87-2.07 2.37-2.03 3.62zm12.344 28.656c2.77-2.29 4.905-5.4 6.465-9.255-.265-.08-.28-.358-.517-.46-2.5 2.42-4.828 6.24-5.95 9.715zM230.64 375.14c-5.355 6.575-10.75 13.162-15.986 19.46-7.272 8.77-13.834 17.82-22.477 24.434-.29 2.85-1.868 3.982-2.742 6.05 2.72-1.48 4.58-4.058 6.667-6.303 14.928-16.127 29.156-33.187 42.364-51.342-.012-.233-.17-.334-.332-.442-3.32 1.645-4.992 5.083-7.49 8.143zm-26.795 7.147c1.227-.865 2.097-2.188 2.82-3.704-.02-.16-.13-.25-.357-.244-.59 1.485-2.604 2.244-2.463 3.946zm-13.534 3.85c1.327-.814 2.34-2.024 3.015-3.688-.19-.024-.38-.046-.568-.074-.637 1.487-2.053 1.958-2.446 3.76zm11.435 12.003c.896-.695 1.585-1.66 1.958-3.04-.023-.153-.13-.245-.356-.245-.528 1.11-1.492 1.64-1.602 3.286zm-44.56 10.626c-5.18 10.488 1.068 21.702 10.418 24.122 10.9 2.827 19.3-3.856 21.147-12.938 2.184-10.75-5.585-19.712-16.207-20.04-6.835-.192-12.875 3.845-15.36 8.856zm-5.482 15.018c.64 3.494 2.547 7.047 5 9.223 1.555 1.375 4.467 3.714 5.96 1.95-4.538-3.21-8.912-6.56-10.67-11.908-.096.253-.32.332-.29.734zm107.235-187.576c-2.023-3.597-3.595-7.546-6.812-10.23 1.395 4.143 3.636 7.628 6.35 10.752-4.982 4.32-10.33 8.172-15.595 12.127-15.607 11.713-31.194 23.905-47.247 35.35-2.194-3.355-3.71-7.233-6.64-10.022.024 1.957 1.387 3.823 2.37 5.564 1.04 1.842 2.195 3.577 3.626 4.946-8.887 7.48-19.006 14.39-29.18 22.188-3.555 2.725-7.236 5.49-11.01 8.266-4.77 3.513-9.368 7.336-14.493 11.106-1.063.774-3.19 2.562-3.814 2.415-.987-.25-2.38-4.303-2.833-5.042-1.17-1.935-2.303-3.45-3.295-4.52.897 3.378 3.27 7.11 5.26 10.218-4.14 3.71-8.67 6.91-13.196 10.112-1.517 1.012-2.44 2.792-4.66 2.884-.92 2.313-3.103 2.968-4.833 4.22-16.59-2.998-27.718-10.508-28.16-26.662-.033-1.42-.347-3.77.09-5.04.654-1.915 6.67-5.46 9.352-7.513 22.44-17.207 44.106-33.628 66.594-50.86 22.808-17.478 43.93-33.318 66.79-50.84 2.775-2.127 7.48-7.063 10.974-6.52 2.076.327 4.536 4.664 6.117 6.643 3.856 4.83 7.7 9.168 11.394 13.758 1.775 2.185 4.455 4.727 5.495 6.94.793 1.683 1.183 3.02-.338 4.037 1.615 1.817-.297 5.33-2.31 5.725zm2.116-5.75c-1.628-3.84-4.67-6.604-7.264-9.705-.23 0-.54-.105-.6.115 2.48 3.307 4.363 7.072 7.864 9.59zm-15.927 14.612c-1.366-3.986-3.526-7.368-6.21-10.345 1.36 3.88 3.536 8.045 6.21 10.345zm-18.385 14.092c-1.224-4.27-3.384-7.822-6.135-10.918 1.47 4.082 3.414 7.79 6.135 10.918zm-12.41 7.108c-.327-2.788-2.8-5.406-3.98-8.11-.19-.022-.38-.05-.573-.08 1.044 3.093 2.664 5.747 4.552 8.19zm-20.544-4.863c1.442 1.424 2 4.41 3.596 5.145-.82-1.8-1.612-5.372-3.596-5.145zm-14.487 30.16c-.643-3.342-2.204-5.98-4.793-7.826.828 2.52 3.045 5.44 4.795 7.828zm-7.77 7.328c-.642-2.2-1.564-4.18-3.354-5.495.7 2.047 1.957 4.558 3.354 5.495zm-8.92 7.182c-1.066-3.132-2.76-5.778-4.96-8.047 1.073 3.128 2.38 6.068 4.96 8.047zm-14.13 1.04c1.67 2.512 3.28 5.95 5.2 7.69-1.04-2.986-2.328-6.68-5.2-7.69zm-9.956 4.704c1.077 1.99 1.985 4.103 3.517 5.725-.65-2.194-1.573-5.078-3.516-5.723zm-11.518 22.394c-1.37-4.15-3.506-7.725-6.132-10.925 1.385 4.15 3.217 7.95 6.132 10.924zm-12.866-8.505c-.275-1.335-1.01-2.318-2.13-3.01-.043 1.58.955 2.36 2.13 3.01zm7.245 12.812c-.5-1.904-1.34-3.55-3.1-4.487.535 1.877 1.743 3.24 3.1 4.488zm-4.11 3.157c-.386-2.52-2.158-5.44-4.086-7.347.883 2.812 2.254 5.255 4.083 7.347zm-9.5-1.65c-.877-2.59-2.34-4.73-4.62-6.245.55 2.833 3.055 4.184 4.62 6.243z" fill-rule="evenodd" clip-rule="evenodd" fill="#FBFBFB"/><ellipse fill-rule="evenodd" clip-rule="evenodd" fill="#3AB5E9" cx="70.496" cy="366.754" rx="13.685" ry="13.69"/><path d="M70.313 380.308l2.723-8.65 8.872 1.707-6.29-6.53 6.29-6.448-8.866 1.726-2.698-8.63-2.722 8.63-8.872-1.72 6.296 6.446-6.296 6.524 8.878-1.707z"/><path fill-rule="evenodd" clip-rule="evenodd" fill="#3AB5E9" d="M445.305 365.874c0 7.56-6.125 13.683-13.685 13.683s-13.688-6.123-13.688-13.683 6.13-13.69 13.688-13.69 13.685 6.13 13.685 13.69z"/><path d="M431.434 379.427l2.72-8.663 8.877 1.72-6.29-6.532 6.292-6.452-8.87 1.73-2.692-8.634-2.725 8.634-8.867-1.713 6.293 6.44-6.293 6.526 8.878-1.707z"/><path fill="#fff" d="M18.267 218.464c1.738.83 3.32 3.064 5.01 4.93 1.408 1.547 3.79 2.878 3.398 4.677-3.017-.102-5.756-1.963-8.623-3.017.16-2.18-1.95-4.725.215-6.588zM57.688 336.09c.23-.034.43-.067.604-.113.18-.04.31-.078.396-.106.757-.275 1.25-.875 1.46-1.803.217-.916.295-1.91.233-2.997-.06-1.087-.216-2.138-.47-3.145-.25-1.012-.46-1.753-.633-2.217-.667-1.826-1.504-2.873-2.522-3.144-1.01-.276-2.318-.124-3.92.464l-19.518 7.164c-.293.108-.5.294-.623.554-.118.268-.073.81.14 1.646l-.758.283-4.806-13.084.756-.28c.385.773.704 1.22.96 1.345.26.113.54.124.838.01l21.147-7.762c2.244-.82 4.203-1.113 5.87-.894 1.67.22 3.12.84 4.358 1.86 1.235 1.012 2.292 2.34 3.16 3.99.87 1.65 1.672 3.467 2.404 5.457.558 1.526.985 2.952 1.282 4.292.296 1.322.49 2.52.585 3.567.092 1.046.14 1.905.143 2.572.007.673.04 1.09.104 1.266.124.34.277.554.46.656.18.104.487.267.906.498l-.224 1.16-12.306-.38-.022-.858zm-33.464-42.143c-.484-2.59-.58-5.094-.294-7.514.285-2.42.956-4.62 2.013-6.594 1.058-1.98 2.508-3.666 4.342-5.046 1.838-1.39 4.095-2.335 6.77-2.832 2.67-.492 5.116-.425 7.327.214 2.214.64 4.165 1.69 5.864 3.156 1.694 1.465 3.08 3.285 4.148 5.456 1.075 2.16 1.852 4.54 2.333 7.136.48 2.594.608 5.094.385 7.503-.224 2.403-.866 4.596-1.926 6.575-1.054 1.973-2.505 3.664-4.342 5.044-1.835 1.39-4.09 2.33-6.763 2.826-2.673.497-5.116.423-7.33-.216-2.214-.632-4.165-1.685-5.86-3.15-1.697-1.47-3.114-3.277-4.245-5.437-1.134-2.156-1.94-4.53-2.42-7.127zm7.41-1.373c.25 1.34.687 2.567 1.312 3.686.625 1.12 1.4 2.064 2.316 2.84.918.77 1.984 1.328 3.203 1.673 1.213.34 2.527.374 3.944.113 1.42-.26 2.632-.768 3.645-1.526 1.012-.752 1.81-1.65 2.39-2.703.58-1.05.96-2.205 1.145-3.482.188-1.267.15-2.568-.093-3.907-.25-1.34-.684-2.562-1.312-3.68-.625-1.122-1.4-2.07-2.315-2.84-.922-.775-1.985-1.336-3.2-1.674-1.216-.34-2.534-.386-3.953-.12-1.414.267-2.63.776-3.64 1.528-1.014.752-1.81 1.656-2.39 2.708-.58 1.052-.964 2.205-1.147 3.48-.186 1.268-.155 2.57.094 3.904zm9.71-49.87c-.414.082-.756.252-1.024.517-.266.276-.402.718-.402 1.337v11.49h5.745l.003-19.828c0-.33-.113-.58-.34-.744-.226-.167-.73-.29-1.512-.374v-.742l10.565.003v.745c-.536.082-.87.204-.99.367-.126.17-.188.418-.188.747l-.003 30.83h-.74c-.084-.787-.22-1.273-.403-1.46-.187-.182-.424-.277-.713-.277h-28.79c-.29-.005-.524.092-.713.277-.182.18-.315.667-.397 1.447h-.74l.002-30.83c-.002-.33-.113-.577-.342-.743-.224-.158-.69-.286-1.388-.367v-.742h10.752v.743c-.7.085-1.165.21-1.394.37-.224.164-.337.413-.34.74v19.837h5.126l.005-11.49c0-.625-.136-1.066-.402-1.332-.27-.266-.61-.435-1.02-.52v-.74h9.64v.74zm.956-20.564c.225.128.643.258 1.245.383.408.077.936-.2 1.595-.85.655-.643 1.323-1.51 2.012-2.613.688-1.097 1.332-2.384 1.95-3.856.615-1.474 1.082-2.998 1.404-4.575.614-3.024.713-5.317.29-6.87-.414-1.56-1.29-2.476-2.625-2.745-.722-.146-1.36.362-1.917 1.532-.55 1.17-1.108 2.664-1.667 4.487-.56 1.82-1.165 3.77-1.82 5.867-.66 2.1-1.47 4.013-2.433 5.75-.96 1.74-2.126 3.108-3.485 4.115-1.363 1.004-3.01 1.312-4.948.92-1.533-.315-2.853-.95-3.965-1.91-1.103-.958-1.973-2.17-2.604-3.622-.63-1.456-1.01-3.14-1.146-5.058-.136-1.914.023-3.983.475-6.208.417-2.057.94-3.947 1.562-5.672.626-1.716 1.237-3.235 1.842-4.543.6-1.31 1.125-2.398 1.577-3.274.453-.872.718-1.513.803-1.918.08-.408.057-.747-.08-1.03-.133-.277-.3-.54-.497-.792l.376-.613 7.567 5.886-.513.654-.664-.138c-.362-.076-.814.246-1.36.956-.54.712-1.093 1.637-1.636 2.79-.55 1.148-1.08 2.446-1.583 3.903-.502 1.453-.9 2.88-1.19 4.294-.533 2.63-.604 4.526-.21 5.697.393 1.174.932 1.83 1.617 1.974.69.14 1.276-.12 1.768-.776.493-.66.934-1.56 1.332-2.697.402-1.134.803-2.44 1.21-3.914.404-1.476.865-2.977 1.388-4.506.523-1.54 1.117-3.015 1.784-4.434.665-1.42 1.473-2.64 2.414-3.67.947-1.023 2.07-1.784 3.368-2.28 1.298-.488 2.816-.56 4.55-.208 1.33.275 2.59.812 3.77 1.612 1.182.81 2.15 1.976 2.912 3.5.766 1.518 1.227 3.44 1.385 5.768.157 2.32-.1 5.115-.76 8.386-.52 2.546-1.083 4.708-1.7 6.5-.615 1.785-1.225 3.286-1.83 4.508-.608 1.223-1.13 2.18-1.564 2.872-.433.68-.69 1.21-.76 1.574-.05.24-.01.473.11.688.126.215.268.44.428.684l-.327.693-9.868-6.674.425-.548zm-5.23-60.445c-.28-.14-.556-.167-.83-.08-.274.086-.648.496-1.115 1.214l-.724-.378 11.747-22.938c.842-1.648 1.772-3.073 2.793-4.274 1.02-1.19 2.113-2.125 3.292-2.79 1.173-.666 2.44-1.006 3.79-1.022 1.353-.023 2.77.353 4.26 1.114 1.803.924 2.982 2.208 3.53 3.854.55 1.654.57 3.41.068 5.284l.122.062c1.614-1.76 3.333-2.992 5.163-3.704 1.834-.707 3.876-.49 6.12.667 1.208.61 2.23 1.428 3.08 2.448.848 1.015 1.422 2.222 1.725 3.607.296 1.4.29 2.997-.017 4.785-.31 1.795-1.01 3.757-2.098 5.88L66.08 178.67l-.725-.368c.31-.81.42-1.346.332-1.614-.088-.274-.27-.48-.552-.627L37.07 161.697zm18.935-12.04c.655-1.288 1.17-2.365 1.54-3.244.375-.87.584-1.593.628-2.18.048-.586-.06-1.07-.32-1.46-.256-.384-.69-.73-1.294-1.037-.6-.314-1.133-.458-1.6-.443-.463.015-.918.217-1.366.595-.446.376-.916.976-1.407 1.787-.496.815-1.07 1.854-1.725 3.144l-4.195 8.194 5.54 2.833 4.197-8.19zm14.413 4.797c1.11-2.172 1.623-3.836 1.532-4.993-.09-1.167-.798-2.086-2.123-2.768-1.323-.675-2.485-.715-3.478-.107-.997.605-2.05 1.997-3.157 4.16l-5.24 10.242 7.225 3.698 5.238-10.234zm31.852-34.96c.094-.11.198-.284.32-.51.116-.22.042-.444-.232-.67-.152-.125-.455-.252-.894-.385-.438-.127-.924-.263-1.453-.404-.524-.14-1.064-.27-1.61-.39s-1-.232-1.366-.34l-10.933 13.5c.21.3.44.694.685 1.18.246.495.486.993.718 1.493.23.51.447.976.65 1.396.204.42.382.698.54.826.27.22.504.25.7.082.197-.16.344-.3.437-.416l.694.568-7.068 8.72-.695-.558c.186-.234.327-.506.42-.817.09-.31.073-.588-.06-.82-1.773-3.367-3.5-6.723-5.183-10.074-1.685-3.358-3.22-6.38-4.6-9.078-1.384-2.69-2.53-4.92-3.443-6.687-.913-1.764-1.467-2.73-1.662-2.886-.347-.286-.743-.187-1.192.28l-.698-.563 9.847-12.16.7.563c-.374.538-.382.947-.034 1.224.118.1.797.312 2.035.645 1.248.328 2.82.727 4.734 1.176 1.91.457 4.02.966 6.33 1.517 2.313.557 4.625 1.114 6.938 1.666 2.31.558 4.496 1.09 6.554 1.604 2.06.515 3.766.967 5.117 1.348.258.085.532.042.815-.113.288-.15.523-.34.713-.577l.7.566-7.823 9.66-.694-.568zm-25.168-7.47l6.322 13.023 7.82-9.66-14.142-3.363zm43.242-11.59c.184.224.404.348.665.376.26.028.716-.175 1.38-.6l.467.57-9.878 8.037-.47-.58c.557-.557.85-.967.876-1.23.026-.254-.05-.5-.234-.726L94.99 83.94c-.18-.224-.404-.348-.665-.376-.263-.023-.724.18-1.38.603l-.47-.57 17.546-14.27c3.55-2.878 6.65-4.33 9.3-4.332 2.653-.003 5.08 1.354 7.29 4.068 1.79 2.208 2.547 4.456 2.267 6.757-.283 2.293-1.19 4.526-2.733 6.683l12.13 3.354c.855.266 1.547.178 2.093-.266l.466.576-9.97 8.105-.468-.58c.676-.596.795-1.166.354-1.715-.055-.06-.363-.18-.934-.36-.568-.17-1.26-.378-2.086-.607-.827-.23-1.726-.47-2.695-.72-.97-.243-1.903-.48-2.805-.704-.898-.224-1.688-.433-2.372-.623-.684-.183-1.14-.32-1.365-.4l-4.7 3.825 6.55 8.048zm-2.626-19.678c1.405-1.147 2.16-2.197 2.26-3.153.098-.956-.136-1.78-.71-2.49-.574-.702-1.337-1.103-2.29-1.2-.96-.1-2.144.423-3.55 1.565l-8.053 6.55 4.29 5.274 8.053-6.545zm12.126-23.596c-.135-.255-.33-.42-.58-.495-.25-.08-.74.034-1.473.328l-.346-.652 20.78-11.066c1.487-.8 2.93-1.378 4.32-1.737 1.39-.37 2.703-.498 3.93-.378 1.227.112 2.354.515 3.375 1.204 1.022.695 1.893 1.716 2.605 3.06.872 1.63 1.086 3.214.634 4.737-.45 1.527-1.35 2.855-2.7 3.992l.052.112c2.126-.477 4.063-.502 5.808-.078 1.742.424 3.158 1.656 4.24 3.687.578 1.093.922 2.24 1.03 3.448.102 1.196-.096 2.4-.596 3.602-.506 1.207-1.343 2.397-2.508 3.576-1.168 1.182-2.714 2.29-4.643 3.313l-21.05 11.21-.348-.656c.653-.438 1.018-.784 1.094-1.038.076-.252.047-.5-.09-.76l-13.533-25.41zm20.474.86c1.165-.622 2.112-1.163 2.847-1.63.735-.457 1.273-.895 1.61-1.308.34-.416.514-.825.52-1.252.007-.424-.134-.91-.425-1.46-.29-.542-.614-.93-.968-1.16-.355-.235-.8-.323-1.337-.275-.53.054-1.192.254-1.984.607s-1.77.84-2.933 1.46l-7.416 3.95 2.67 5.017 7.42-3.95zm8.305 11.116c1.962-1.043 3.215-2.03 3.754-2.943.534-.92.483-1.972-.152-3.17-.64-1.21-1.493-1.834-2.55-1.9-1.06-.065-2.576.424-4.538 1.47l-9.27 4.936 3.485 6.548 9.27-4.94zm37.053-20.114c-.206-.37-.475-.64-.81-.813-.337-.172-.8-.167-1.39.02l-10.95 3.492 1.745 5.477 18.9-6.022c.313-.104.516-.286.6-.555.09-.264.054-.782-.104-1.55l.708-.227 3.208 10.062-.708.227c-.24-.48-.458-.76-.65-.826-.198-.07-.453-.054-.76.045l-29.38 9.366-.225-.71c.717-.308 1.14-.588 1.26-.823.122-.232.136-.486.05-.76l-8.743-27.434c-.085-.275-.25-.476-.48-.59-.235-.12-.736-.098-1.505.06l-.226-.707 29.378-9.37c.31-.098.51-.276.6-.548.086-.265.063-.746-.07-1.43l.708-.227 3.266 10.244-.707.227c-.292-.646-.55-1.046-.775-1.213-.227-.165-.498-.205-.81-.1l-18.9 6.023 1.56 4.883 10.95-3.482c.586-.19.97-.452 1.144-.79.172-.334.236-.71.19-1.13l.707-.222 2.924 9.18-.703.226zm24.474 5.068c.033.285.157.506.363.673.207.163.704.236 1.488.22l.09.734-12.627 1.56-.09-.726c.765-.178 1.23-.373 1.393-.58.158-.206.22-.452.184-.74l-3.54-28.578c-.037-.286-.16-.51-.365-.668-.206-.16-.704-.234-1.49-.22l-.09-.738 22.442-2.78c4.537-.56 7.93-.137 10.178 1.262 2.25 1.4 3.59 3.842 4.02 7.31.35 2.83-.203 5.135-1.665 6.934-1.456 1.8-3.407 3.206-5.858 4.212l8.5 9.285c.578.675 1.217.97 1.913.882l.09.736-12.754 1.58-.09-.737c.895-.15 1.3-.578 1.214-1.27-.01-.086-.212-.35-.6-.8-.386-.453-.868-.985-1.444-1.62-.58-.64-1.212-1.32-1.903-2.04-.692-.726-1.356-1.42-2-2.09-.646-.66-1.206-1.26-1.686-1.78-.48-.523-.79-.876-.94-1.07l-6.01.748 1.28 10.298zm8.22-18.08c1.798-.224 2.994-.716 3.583-1.468.59-.758.83-1.59.72-2.485-.11-.902-.545-1.645-1.305-2.242-.758-.582-2.036-.766-3.83-.543l-10.304 1.27.834 6.745 10.302-1.277zm24.035 4.696c-.098.237-.167.67-.208 1.286-.028.413.323.9 1.05 1.464.724.566 1.677 1.106 2.865 1.637 1.175.536 2.544 1.005 4.08 1.42 1.546.415 3.122.672 4.723.78 3.082.197 5.366-.01 6.853-.637 1.488-.625 2.273-1.617 2.358-2.977.05-.732-.543-1.3-1.774-1.69-1.233-.394-2.788-.74-4.67-1.053-1.878-.308-3.892-.646-6.063-1.017-2.16-.374-4.174-.917-6.018-1.63-1.858-.725-3.37-1.692-4.55-2.908-1.18-1.21-1.704-2.8-1.57-4.778.098-1.564.55-2.95 1.356-4.182.8-1.227 1.88-2.25 3.236-3.074 1.352-.81 2.974-1.417 4.85-1.807 1.89-.393 3.96-.517 6.222-.364 2.09.135 4.037.398 5.835.786 1.79.38 3.37.784 4.75 1.203 1.368.424 2.523.797 3.45 1.128.928.33 1.595.507 2.014.533.405.03.74-.04 1.005-.21.25-.172.492-.37.713-.605l.667.29-4.816 8.29-.718-.415.04-.676c.028-.377-.352-.778-1.12-1.225-.78-.444-1.775-.86-2.985-1.25-1.207-.387-2.57-.738-4.08-1.043-1.504-.306-2.98-.498-4.416-.597-2.675-.173-4.564.01-5.672.548-1.106.55-1.685 1.17-1.73 1.87-.045.706.284 1.25 1 1.648.72.4 1.67.725 2.852.965 1.182.245 2.527.47 4.044.664 1.515.203 3.064.46 4.658.774 1.583.31 3.126.7 4.626 1.17 1.493.47 2.815 1.107 3.958 1.905 1.146.797 2.052 1.804 2.714 3.024.667 1.224.938 2.716.82 4.48-.086 1.36-.458 2.68-1.097 3.96-.64 1.27-1.663 2.394-3.07 3.352-1.403.96-3.247 1.68-5.53 2.146-2.28.468-5.084.597-8.415.374-2.59-.17-4.807-.435-6.66-.81-1.854-.37-3.43-.773-4.723-1.206-1.296-.438-2.31-.823-3.05-1.165-.744-.34-1.3-.516-1.67-.544-.243-.012-.463.056-.66.206s-.405.325-.623.515l-.73-.233 5.284-10.673.596.35zm65.865 21.812c-.073.282-.04.53.09.758.13.226.57.477 1.307.75l-.192.723-12.315-3.2.188-.722c.78.117 1.277.11 1.504-.022.227-.13.38-.336.446-.617l2.878-11.063-15.544-4.04-2.884 11.06c-.068.283-.033.535.096.76.13.228.572.48 1.308.76l-.193.715-12.316-3.203.186-.722c.776.116 1.28.11 1.505-.025.227-.13.373-.333.447-.614l7.243-27.865c.074-.28.04-.53-.09-.757-.13-.226-.57-.478-1.306-.757l.184-.715 12.322 3.2-.188.714c-.78-.116-1.285-.11-1.512.025-.22.132-.372.34-.44.62l-2.476 9.5 15.55 4.043 2.47-9.507c.074-.28.04-.53-.084-.755-.136-.225-.578-.477-1.312-.754l.188-.712 12.32 3.197-.186.72c-.776-.12-1.284-.114-1.51.022-.222.135-.374.34-.44.616l-7.247 27.866zm32.168-19.372c2.376 1.137 4.457 2.527 6.25 4.18 1.79 1.656 3.17 3.484 4.154 5.51.974 2.018 1.482 4.175 1.527 6.48.044 2.297-.523 4.675-1.693 7.126-1.17 2.454-2.663 4.394-4.478 5.807-1.816 1.417-3.817 2.38-6 2.895-2.184.507-4.468.56-6.848.153-2.387-.41-4.768-1.178-7.152-2.317-2.375-1.13-4.478-2.497-6.288-4.097-1.82-1.587-3.21-3.4-4.195-5.415-.98-2.02-1.487-4.176-1.532-6.48-.04-2.304.525-4.682 1.69-7.133 1.176-2.456 2.67-4.387 4.484-5.803 1.813-1.42 3.814-2.385 5.997-2.894 2.184-.515 4.48-.59 6.888-.24 2.41.352 4.808 1.093 7.192 2.23zm-3.245 6.808c-1.232-.585-2.48-.958-3.754-1.11-1.275-.15-2.496-.077-3.655.208-1.164.29-2.25.828-3.235 1.608-.993.784-1.795 1.82-2.418 3.127-.617 1.3-.922 2.584-.905 3.842.012 1.264.272 2.435.78 3.53.51 1.08 1.222 2.074 2.144 2.967.924.897 1.998 1.638 3.22 2.22 1.232.59 2.476.953 3.755 1.103 1.27.153 2.493.084 3.657-.207 1.166-.285 2.24-.823 3.23-1.603.996-.783 1.8-1.83 2.42-3.132.623-1.297.922-2.58.906-3.842-.013-1.264-.272-2.437-.78-3.517-.51-1.09-1.228-2.082-2.145-2.98-.92-.894-1.995-1.632-3.217-2.214zm15.94 36.04c-.163.24-.226.487-.187.748.046.26.362.647.95 1.165l-.43.603-10.37-7.374.43-.602c.69.387 1.158.56 1.413.51.26-.04.474-.177.637-.412l16.687-23.47c.165-.233.227-.485.182-.745-.04-.26-.362-.648-.95-1.17l.43-.597 18.026 12.813c1.584 1.124 2.812 2.34 3.698 3.65.89 1.315 1.46 2.648 1.72 3.99.254 1.344.215 2.67-.107 3.984-.322 1.312-.876 2.517-1.668 3.625-.79 1.11-1.748 2.032-2.877 2.77-1.132.74-2.37 1.202-3.704 1.376-1.347.18-2.783.07-4.32-.327-1.527-.41-3.082-1.175-4.66-2.3l-9.063-6.44-5.835 8.204zm17.286-8.105c1.406 1.007 2.605 1.507 3.595 1.5.99-.004 1.866-.545 2.636-1.622.69-.972.86-1.903.52-2.805-.345-.9-1.22-1.86-2.634-2.86l-7.657-5.446-4.116 5.793 7.654 5.44zm58.84 56.66c.136-.04.272-.1.42-.17.14-.078.305-.18.49-.31.3-.208.413-.675.356-1.378-.062-.715-.27-1.57-.623-2.575-.35-1.003-.824-2.098-1.424-3.29-.6-1.192-1.314-2.38-2.16-3.56-.795-1.11-1.75-2.184-2.874-3.218-1.132-1.038-2.353-1.853-3.67-2.45-1.317-.592-2.697-.864-4.134-.813-1.447.048-2.86.577-4.274 1.573-1.403 1.003-2.364 2.177-2.885 3.52-.52 1.346-.713 2.737-.576 4.175.128 1.44.496 2.862 1.106 4.267.61 1.404 1.312 2.663 2.104 3.765.345.483.968 1.182 1.866 2.104.91.915 1.877 1.79 2.912 2.614 1.035.82 2.012 1.492 2.95 2.03.935.528 1.607.65 2.015.358.186-.126.31-.273.367-.423.057-.157.135-.318.227-.5l.825.33-4.64 11.92-.862-.393c.13-.203.182-.393.14-.56-.032-.17-.117-.347-.247-.533-.186-.258-.712-.665-1.582-1.22-.86-.542-1.916-1.316-3.15-2.31-1.23-.986-2.578-2.216-4.043-3.678-1.458-1.47-2.928-3.237-4.405-5.307-1.576-2.223-2.86-4.623-3.844-7.213-.98-2.59-1.47-5.196-1.465-7.814 0-2.624.55-5.137 1.65-7.538 1.11-2.403 2.897-4.487 5.374-6.254 2.48-1.76 5.03-2.772 7.667-3.024 2.636-.263 5.18.035 7.663.89 2.476.855 4.8 2.155 6.988 3.886 2.19 1.736 4.066 3.712 5.645 5.93 1.578 2.22 2.822 4.22 3.727 5.998.905 1.785 1.605 3.332 2.104 4.646.463 1.29.81 2.3 1.03 3.037.213.738.43 1.255.643 1.546.237.33.584.504 1.03.51l.27.73-12.71 1.528v-.832zm-8.697 28.587c-.412.19-.61.456-.59.81.03.35.125.76.29 1.228l-.673.303-4.84-10.7.68-.3c.234.428.485.77.733 1.02.25.248.576.28.99.09l21.396-9.667c.41-.184.61-.452.58-.803-.02-.356-.113-.766-.283-1.236l.678-.304 4.835 10.7-.677.307c-.244-.436-.48-.772-.735-1.02-.248-.255-.577-.287-.99-.097l-7.09 3.203 5.62 12.447 7.09-3.21c.42-.188.612-.46.59-.807-.022-.35-.12-.754-.284-1.224l.674-.307 4.834 10.695-.678.31c-.237-.436-.486-.778-.734-1.028-.25-.25-.578-.28-.985-.096l-21.396 9.667c-.42.19-.61.458-.59.81.023.35.112.76.282 1.226l-.673.31-4.834-10.697.678-.308c.237.434.48.773.73 1.025.25.25.583.277.99.096l8.56-3.873-5.62-12.44-8.562 3.866zm37.105 28.746c-.227-.578-.44-1.017-.667-1.313-.214-.3-.54-.38-.977-.25l-22.453 6.85c-.442.134-.662.38-.68.75-.01.37.046.86.192 1.465l-.713.214-3.575-11.7.713-.222c.22.585.44 1.023.66 1.318.222.303.542.385.98.257l22.46-6.858c.434-.133.655-.38.677-.755.012-.37-.05-.86-.19-1.453l.705-.22 3.568 11.696-.702.22zm-3.07 33.538l.277-.924c.17.008.345.034.52.068.17.03.356.028.56-.003.244-.047.486-.346.72-.915.237-.56.423-1.258.547-2.098.13-.834.21-1.772.244-2.8.028-1.025-.046-2.048-.216-3.066-.198-1.132-.543-2.27-1.03-3.392-.484-1.13-1.106-2.113-1.858-2.947-.752-.83-1.635-1.47-2.658-1.922-1.023-.447-2.188-.557-3.488-.333-1.267.218-2.32.707-3.15 1.476-.83.776-1.464 1.678-1.894 2.713-.43 1.038-.685 2.166-.77 3.393-.08 1.23-.022 2.41.17 3.545.216 1.216.564 2.34 1.053 3.365.486 1.02 1.017 1.915 1.587 2.67.57.757 1.104 1.33 1.613 1.727.508.396.865.574 1.068.54l.55-.095c.236-.04.417-.094.53-.157l.542.597-7.312 7.22-.548-.66c.38-.442.543-.807.497-1.087-.032-.164-.287-.57-.77-1.218-.485-.653-1.06-1.52-1.73-2.618-.66-1.097-1.293-2.423-1.888-3.97-.6-1.548-1.063-3.293-1.4-5.244-.387-2.233-.54-4.453-.46-6.66.08-2.21.516-4.24 1.307-6.085.78-1.855 1.97-3.438 3.536-4.744 1.566-1.32 3.613-2.194 6.136-2.626 2.477-.432 4.67-.288 6.593.427 1.923.72 3.574 1.816 4.954 3.29 1.38 1.47 2.51 3.23 3.387 5.277.876 2.045 1.504 4.176 1.888 6.412.23 1.343.345 2.657.333 3.952 0 1.297-.034 2.5-.102 3.596-.057 1.093-.136 2.048-.226 2.863-.09.81-.102 1.375-.052 1.7.035.203.13.376.277.518.147.138.294.24.43.302l-.118.775-9.647-2.86zm-14.792 36.532c0 .124.016.283.062.497.035.203.198.312.486.316.164-.005.42-.072.774-.21.356-.142.74-.3 1.148-.48.418-.18.83-.367 1.244-.565.42-.203.77-.36 1.062-.48l.193-14.333c-.295-.09-.64-.227-1.047-.418-.407-.19-.82-.394-1.227-.605-.406-.21-.79-.396-1.14-.566-.34-.172-.6-.257-.764-.26-.29-.002-.458.1-.5.306-.043.206-.066.367-.066.486h-.742l.126-9.276.74.01c-.006.25.045.496.14.748.104.246.256.413.465.5 2.86 1.275 5.7 2.567 8.502 3.882 2.8 1.317 5.338 2.494 7.61 3.534 2.274 1.04 4.15 1.9 5.65 2.582 1.498.678 2.347 1.018 2.55 1.02.372.006.583-.26.634-.794l.734.012-.17 12.908-.745-.01c-.028-.532-.23-.804-.6-.804-.13-.006-.678.203-1.65.622-.974.418-2.194.96-3.664 1.65-1.475.68-3.103 1.425-4.884 2.25-1.78.82-3.562 1.64-5.35 2.454-1.774.826-3.47 1.595-5.066 2.32-1.596.716-2.93 1.293-4.01 1.735-.21.08-.36.244-.47.486-.1.25-.157.493-.164.74l-.74-.01.14-10.257.74.01zm20.135-8.007L459.2 248.73l-.142 10.255 10.886-5.043zm-20.48 49.59c-.406-.073-.79-.045-1.147.1-.36.143-.577.397-.64.76l-.1.554-.736-.135c-.305-1.064-.6-2.273-.87-3.62-.272-1.35-.477-2.793-.61-4.332-.137-1.532-.176-3.08-.114-4.664.067-1.577.23-3.144.52-4.676.43-2.353 1.075-4.467 1.924-6.367.858-1.9 1.966-3.438 3.342-4.63 1.37-1.195 2.99-2.032 4.854-2.5s3.998-.493 6.39-.04c2.386.436 4.36 1.267 5.92 2.477 1.556 1.198 2.755 2.657 3.592 4.365.837 1.7 1.352 3.573 1.543 5.6.185 2.018.095 4.068-.29 6.133-.282 1.532-.633 2.923-1.05 4.168-.42 1.244-.84 2.33-1.26 3.257-.427.928-.78 1.685-1.083 2.28-.3.6-.464 1-.503 1.202-.062.316-.04.543.062.668.1.113.226.278.355.47l-.254.707-7.44-4.637.498-.667.43.078c.36.068.758-.146 1.18-.627.426-.493.845-1.108 1.257-1.87.413-.76.775-1.585 1.087-2.48.312-.88.538-1.685.667-2.413.232-1.255.312-2.478.232-3.664-.07-1.188-.357-2.256-.85-3.206-.497-.95-1.198-1.766-2.097-2.433-.9-.66-2.065-1.13-3.48-1.39-1.457-.27-2.747-.26-3.872.035-1.126.3-2.1.813-2.924 1.537-.826.725-1.505 1.63-2.036 2.704-.538 1.075-.93 2.284-1.177 3.614-.18 1.012-.293 2.02-.333 3.02-.034 1 .017 2.007.164 3.042l3.947.73.944-5.1c.086-.486-.04-.826-.377-1.02-.34-.186-.634-.304-.883-.35l.136-.724 7.53 1.39-.136.73c-.237-.044-.554-.04-.938.018-.386.045-.628.317-.713.804l-2.34 12.637-8.324-1.533zm13.23 26.597c-.666 1.81-1.6 3.54-2.78 5.19-1.19 1.64-2.584 3.015-4.196 4.105-1.617 1.092-3.427 1.798-5.428 2.104-2.013.315-4.15.044-6.424-.805-2.317-.858-4.13-2.068-5.422-3.597-1.296-1.538-2.188-3.246-2.68-5.117-.493-1.87-.63-3.815-.408-5.82.22-2.006.662-3.922 1.34-5.73.674-1.82 1.583-3.55 2.726-5.214 1.148-1.66 2.517-3.047 4.117-4.15 1.594-1.085 3.38-1.798 5.364-2.114 1.984-.316 4.14-.046 6.45.815 2.285.848 4.08 2.047 5.396 3.584 1.312 1.55 2.228 3.257 2.737 5.14.508 1.884.672 3.828.49 5.854-.173 2.013-.603 3.936-1.283 5.756zm-6.133-2.284c.4-1.085.617-2.166.65-3.252.02-1.092-.125-2.107-.452-3.07-.328-.955-.848-1.792-1.55-2.52-.7-.724-1.595-1.29-2.68-1.69-1.086-.402-2.126-.562-3.133-.47-1.007.09-1.94.384-2.816.894-.87.508-1.65 1.187-2.34 2.034-.69.844-1.233 1.805-1.64 2.886-.413 1.118-.634 2.215-.657 3.285-.023 1.067.134 2.074.462 3.036.327.953.837 1.795 1.55 2.52.695.712 1.59 1.28 2.68 1.686 1.074.4 2.127.56 3.132.475.996-.09 1.94-.39 2.816-.905.873-.508 1.653-1.164 2.33-1.99.68-.827 1.234-1.8 1.647-2.92zM187.243 455.898c.11-.294.08-.555-.09-.78-.17-.232-.532-.453-1.087-.667l-12.833-4.873-1.87 4.908 7.765 2.95c.53.204.964.284 1.312.25.345-.033.633-.35.865-.96l.713.27-2.35 6.18-.713-.27c.23-.606.232-1.053.01-1.336-.227-.283-.604-.527-1.132-.726l-7.763-2.95-2.078 5.468 13.23 5.027c.397.152.753.186 1.075.096.322-.092.543-.295.664-.61l.715.27-2.064 5.43-.71-.272c.15-.396.11-.674-.12-.82-.234-.152-.545-.3-.94-.446l-18.46-7.023.27-.713c.183.074.373.08.562.013.19-.062.33-.215.422-.453l6.84-17.98c.087-.238.084-.447-.018-.622-.1-.17-.243-.294-.427-.36l.27-.714 18.063 6.864c.558.214.98.27 1.268.186.293-.083.493-.277.604-.564l.714.27-1.988 5.23-.713-.272zm3.833 12.722c-.025.113-.062.227-.108.345-.042.12-.082.25-.115.386-.102.414.068.855.503 1.325.438.47.992.91 1.662 1.327.667.41 1.352.77 2.044 1.09.692.314 1.247.524 1.657.625.383.098.862.188 1.44.266.573.086 1.16.104 1.75.064.594-.046 1.12-.175 1.583-.4.46-.217.755-.59.885-1.11.146-.604-.083-1.13-.685-1.565-.607-.443-1.4-.86-2.375-1.263-.978-.396-2.042-.82-3.184-1.26s-2.18-.958-3.11-1.55c-.93-.595-1.654-1.296-2.165-2.105-.514-.81-.627-1.805-.336-2.986.43-1.76 1.5-2.98 3.212-3.66 1.71-.69 3.882-.706 6.517-.062 1.29.322 2.37.695 3.237 1.126.87.43 1.59.85 2.16 1.25.57.4 1.03.75 1.378 1.057.345.307.616.48.808.526.218.052.39.063.518.018.127-.04.283-.08.47-.124l.338.563-3.008 3.36-.678-.425c.01-.176.025-.345.04-.515.01-.17-.07-.368-.252-.588-.433-.6-1.185-1.205-2.256-1.82-1.07-.612-2.32-1.092-3.75-1.443-.547-.13-1.076-.227-1.588-.276-.51-.057-.978-.046-1.402.02-.427.07-.78.21-1.063.42-.282.204-.472.5-.564.883-.15.603.08 1.12.69 1.55.61.416 1.4.835 2.38 1.23.98.406 2.037.825 3.18 1.266 1.142.442 2.18.96 3.107 1.573.928.597 1.643 1.333 2.146 2.182.503.848.608 1.877.312 3.086-.297 1.21-.834 2.125-1.612 2.748-.78.62-1.662 1.04-2.65 1.267-.983.227-2.023.27-3.112.152-1.09-.124-2.1-.3-3.032-.525-.933-.232-1.838-.55-2.714-.95-.874-.407-1.66-.815-2.358-1.233-.7-.42-1.28-.797-1.753-1.13-.47-.34-.76-.517-.87-.544-.194-.045-.377-.006-.556.125l-.475-.555 3.026-4.138.73.393zm26.654 11.343c.138.02.285-.01.437-.09.153-.08.243-.228.27-.453l1.817-14-5.466-.702c-.224-.033-.44 0-.653.08-.21.09-.33.26-.365.508l-.754-.096.625-4.835.76.103c-.05.39.01.667.19.837.18.164.38.26.604.294l14.962 1.932c.224.028.444-.01.656-.124.216-.12.35-.375.4-.766l.757.098-.63 4.833-.755-.096c.03-.254-.042-.452-.224-.588-.182-.138-.383-.223-.61-.25l-5.46-.708-1.813 13.996c-.056.418.17.668.673.73l-.097.752-5.423-.7.1-.76zm13.615-.497c.053-.815.396-1.5 1.026-2.054.63-.554 1.356-.804 2.173-.752.816.057 1.504.396 2.055 1.03.554.627.806 1.35.752 2.17-.055.815-.394 1.482-1.022 1.99-.627.51-1.35.74-2.168.69-.82-.057-1.504-.372-2.06-.96-.557-.587-.81-1.29-.755-2.114zm20.757 2.9c.28-.005.527-.096.733-.253.206-.16.302-.488.288-.962l-.436-14.146c-.197 0-.434.023-.7.057-.267.04-.527.104-.778.178-.254.078-.48.186-.69.32-.208.13-.353.312-.43.545l-.51.01-.162-5.337.508-.012c.005.25.14.424.396.515.257.095.498.13.727.13.477-.018.876-.18 1.192-.488.314-.304.468-.666.453-1.095-.01-.396-.11-.646-.3-.753-.187-.106-.437-.186-.75-.23l-.014-.51 6.865-.21.01.51c-.337.062-.61.175-.836.323-.22.146-.328.36-.317.644l.6 19.4c.012.48.136.797.368.945.23.146.487.214.77.21l.017.507-6.99.217-.016-.51zm15.998-6.796l.536.187c.017.142.062.306.13.497.068.192.164.35.295.476.33.327.747.588 1.257.797.515.203 1.05.356 1.622.447.57.1 1.137.146 1.71.146.57-.005 1.077-.033 1.524-.097 4.37-.57 6.406-3.07 6.112-7.503-1.097.735-2.206 1.397-3.33 1.967-1.126.577-2.325.95-3.613 1.114-1.014.133-2.064.144-3.16.03-1.104-.112-2.11-.384-3.037-.803-.922-.418-1.71-1.018-2.364-1.787-.655-.77-1.06-1.74-1.216-2.918-.186-1.425-.026-2.686.47-3.777s1.21-2.036 2.133-2.82c.92-.787 1.983-1.42 3.192-1.895 1.205-.465 2.427-.78 3.66-.945 1.543-.197 2.98-.125 4.324.232 1.34.35 2.533.933 3.586 1.753 1.046.813 1.905 1.837 2.58 3.06.666 1.226 1.106 2.605 1.31 4.145.238 1.82.158 3.505-.226 5.055-.38 1.543-1.035 2.912-1.962 4.1-.928 1.193-2.086 2.154-3.49 2.89-1.4.74-3.007 1.227-4.827 1.464-1.267.164-2.353.214-3.257.146-.905-.067-1.67-.196-2.29-.384-.63-.188-1.132-.368-1.522-.525-.395-.17-.7-.23-.927-.203-.305.04-.564.16-.763.357l-.38-.25 1.923-4.954zm6.015-13.22c-.678.084-1.323.236-1.957.445-.622.21-1.176.5-1.64.854-.464.36-.813.807-1.04 1.332-.232.527-.3 1.16-.204 1.884.09.734.317 1.322.68 1.774.355.454.81.794 1.345 1.02.54.226 1.146.362 1.81.406.66.04 1.32.018 2-.067.668-.09 1.32-.24 1.945-.453.633-.205 1.175-.492 1.646-.85.464-.362.814-.803 1.048-1.334.224-.532.293-1.158.2-1.89-.1-.723-.326-1.317-.683-1.77-.356-.446-.81-.79-1.352-1.023-.543-.224-1.143-.36-1.804-.4-.66-.038-1.33-.016-1.996.07zm34.175-4.19l-.53-.033c-.09-.12-.17-.238-.227-.357-.062-.113-.17-.227-.312-.334-.377-.338-.863-.577-1.456-.706-.595-.136-1.194-.21-1.815-.22-.618-.013-1.2.02-1.754.09-.55.073-.983.158-1.312.237-2.08.554-3.572 1.515-4.478 2.884-.904 1.37-1.12 3.123-.634 5.276 1.098-1.022 2.18-1.865 3.23-2.526 1.053-.657 2.312-1.183 3.795-1.572 1.007-.272 2.035-.39 3.075-.362 1.053.028 2.03.225 2.952.6.915.373 1.72.91 2.42 1.617.7.7 1.198 1.617 1.492 2.736.34 1.28.33 2.485-.044 3.605s-.963 2.125-1.748 3.008c-.786.883-1.735 1.617-2.833 2.217-1.097.6-2.204 1.054-3.324 1.347-1.64.44-3.16.595-4.57.47-1.4-.12-2.678-.526-3.82-1.198-1.143-.676-2.134-1.603-2.958-2.79-.826-1.188-1.453-2.58-1.883-4.196-.43-1.635-.554-3.234-.35-4.795.203-1.556.677-2.975 1.435-4.26.752-1.282 1.752-2.396 3.008-3.34 1.255-.95 2.703-1.64 4.342-2.08 1.312-.347 2.427-.538 3.35-.578.926-.045 1.723-.023 2.386.068.7.08 1.255.158 1.674.256.417.096.734.106.955.05.163-.046.315-.096.457-.163.146-.063.238-.136.277-.205l.4.198-1.2 5.053zm-6.326 6.548c-1.556.418-2.72 1.092-3.5 2.024-.77.938-1.008 1.98-.702 3.126.306 1.148 1.024 1.94 2.16 2.365 1.143.43 2.49.434 4.043.02 1.555-.41 2.72-1.084 3.495-2.023.773-.934 1.01-1.98.706-3.126-.306-1.143-1.03-1.934-2.16-2.363-1.143-.43-2.487-.435-4.042-.02zm29.35-10.942c1.477-.266 2.795-.198 3.948.197 1.153.407 2.036 1.347 2.64 2.84.543 1.334.623 2.56.244 3.68-.39 1.114-1.013 2.12-1.872 3.003-.86.883-1.86 1.63-3.002 2.23-1.143.598-2.206 1.096-3.167 1.492-1.022.418-2.126.768-3.296 1.062-1.184.3-2.33.407-3.457.334-1.13-.073-2.16-.367-3.082-.877-.92-.508-1.62-1.334-2.085-2.487-.34-.837-.52-1.583-.52-2.238-.012-.65.112-1.256.374-1.822.26-.564.63-1.102 1.106-1.617.476-.513 1.03-1.017 1.646-1.516l-.028-.078c-1.13.214-2.228.133-3.28-.246-1.057-.378-1.82-1.158-2.302-2.335-.502-1.23-.615-2.33-.333-3.297.275-.968.78-1.837 1.503-2.6.724-.77 1.584-1.433 2.578-1.986.99-.56 1.958-1.03 2.9-1.413.918-.374 1.94-.713 3.066-1.02 1.125-.305 2.234-.45 3.32-.434 1.09.018 2.097.26 3.025.74.92.475 1.63 1.3 2.11 2.478.51 1.256.54 2.358.1 3.303-.44.94-1.152 1.8-2.152 2.57l-.02-.04.035.077zm-8.08-4.677c-1.724.7-2.877 1.4-3.45 2.09-.57.69-.67 1.493-.297 2.41.373.915 1.005 1.425 1.9 1.514.886.098 2.198-.21 3.922-.91 1.73-.707 2.88-1.395 3.45-2.092.574-.688.677-1.492.304-2.408s-1.007-1.42-1.9-1.515c-.894-.098-2.204.21-3.93.91zm3.35 8.34c-3.744 1.52-5.174 3.37-4.293 5.54.89 2.177 3.2 2.494 6.946.98 3.743-1.53 5.168-3.372 4.286-5.55-.88-2.17-3.194-2.49-6.937-.97z"/></svg>